<?xml version="1.0" encoding="iso-8859-1"?>
<!-- Generator: Adobe Illustrator 19.0.0, SVG Export Plug-In . SVG Version: 6.00 Build 0)  -->
<svg version="1.1" id="Capa_1" xmlns="http://www.w3.org/2000/svg" xmlns:xlink="http://www.w3.org/1999/xlink" x="0px" y="0px"
	 viewBox="0 0 512 512" style="enable-background:new 0 0 512 512;" xml:space="preserve">
<rect x="172.5" y="60.629" transform="matrix(-0.7071 -0.7071 0.7071 -0.7071 208.7101 401.4566)" style="fill:#E1E4FB;" width="30" height="193.748"/>
<rect x="227.625" y="142.496" transform="matrix(-0.7071 -0.7071 0.7071 -0.7071 442.5886 498.3176)" style="fill:#C5C9F7;" width="193.748" height="30"/>
<path style="fill:#0A4EAF;" d="M256,110c-11.028,0-20-8.972-20-20s8.972-20,20-20c11.028,0,20,8.972,20,20S267.028,110,256,110z"/>
<path style="fill:#FEDBAB;" d="M512,442H0V212h512V442z"/>
<path style="fill:#FEC478;" d="M512,442H256V212h256V442z"/>
<path style="fill:#FF6849;" d="M205.452,282.733h18.397l32.197,88.26h-20.884l-6.837-19.766h-27.472l-6.713,19.766h-20.884
	L205.452,282.733z M224.968,337.18l-10.317-31.201l-10.567,31.201H224.968z"/>
<g>
	<path style="fill:#FD4B2D;" d="M270.962,370.993v-88.26h20.386v70.36h42.762v17.9H270.962z"/>
	<path style="fill:#FD4B2D;" d="M411.928,353.093v17.9h-62.03v-88.26h60.911v17.9h-40.525v17.155h34.807v16.534h-34.807v18.77
		h41.644V353.093z"/>
</g>
<path style="fill:#FF6849;" d="M153.242,308.589c-6.992-6.477-34.433-14.789-34.433-1.118c0,7.1,15.401,10.224,18.522,10.815
	c27.472,5.201,27.472,22.667,27.472,26.726c0,4.973-0.97,26.975-33.067,26.975c-3.232,0-18.153,0.833-37.665-10.939l8.95-17.776
	c16.729,10.715,25.69,10.317,29.089,10.317c7.21,0,10.815-2.195,10.815-6.588c0-9.264-16.759-9.097-31.947-15.974
	c-14.939-6.764-15.645-23.123-10.567-32.631c12.452-23.316,44.589-18.409,61.782-6.712L153.242,308.589z"/>
<path style="fill:#063E8B;" d="M256,70v40c11.028,0,20-8.972,20-20S267.028,70,256,70z"/>
<g>
</g>
<g>
</g>
<g>
</g>
<g>
</g>
<g>
</g>
<g>
</g>
<g>
</g>
<g>
</g>
<g>
</g>
<g>
</g>
<g>
</g>
<g>
</g>
<g>
</g>
<g>
</g>
<g>
</g>
</svg>
