<svg width="357.0250244140625px" height="99.2199951171875px" xmlns="http://www.w3.org/2000/svg" viewBox="71.48748779296875 25.390002441406253 357.0250244140625 99.2199951171875" style="background: rgba(0, 0, 0, 0);" preserveAspectRatio="xMidYMid"><defs><filter id="editing-jagged" x="-100%" y="-100%" width="300%" height="300%"><feTurbulence result="turb" baseFrequency="0.1" numOctaves="1" seed="1"></feTurbulence><feDisplacementMap in="SourceGraphic" in2="turb" scale="8"></feDisplacementMap></filter></defs><g filter="url(#editing-jagged)"><g transform="translate(126.2999999821186, 93.5)"><path d="M21.75-7.70L21.75-7.70L21.75-7.70Q22.70-6.50 22.70-4.17L22.70-4.17L22.70-4.17Q22.70-1.85 20.93-0.43L20.93-0.43L20.93-0.43Q19.15 1 16.05 1L16.05 1L16.05 1Q14.25 1 11.45 0.60L11.45 0.60L11.45 0.60Q5.95-0.25 4.38-0.25L4.38-0.25L4.38-0.25Q2.80-0.25 2.15-0.18L2.15-0.18L2.15-0.18Q1.50-0.10 0.45 0L0.45 0L6.50-33L17.45-33L12.45-5.50L12.45-5.50Q13.10-5.40 13.70-5.40L13.70-5.40L14.95-5.40L14.95-5.40Q19.15-5.40 21.75-7.70ZM46.30-8.45L46.30-8.45L46.30-8.45Q47.55-7.60 47.55-5.73L47.55-5.73L47.55-5.73Q47.55-3.85 46.60-2.65L46.60-2.65L46.60-2.65Q45.65-1.45 44.10-0.65L44.10-0.65L44.10-0.65Q40.90 1 37.45 1L37.45 1L37.45 1Q34 1 31.98 0.25L31.98 0.25L31.98 0.25Q29.95-0.50 28.60-1.90L28.60-1.90L28.60-1.90Q25.95-4.55 25.95-9.40L25.95-9.40L25.95-9.40Q25.95-16.95 30.05-21.55L30.05-21.55L30.05-21.55Q34.45-26.50 42.10-26.50L42.10-26.50L42.10-26.50Q46.85-26.50 49.20-24.50L49.20-24.50L49.20-24.50Q50.95-23 50.95-20.55L50.95-20.55L50.95-20.55Q50.95-11.75 35.75-11.75L35.75-11.75L35.75-11.75Q35.55-10.45 35.55-9.35L35.55-9.35L35.55-9.35Q35.55-7.05 36.58-6.18L36.58-6.18L36.58-6.18Q37.60-5.30 39.50-5.30L39.50-5.30L39.50-5.30Q41.40-5.30 43.43-6.18L43.43-6.18L43.43-6.18Q45.45-7.05 46.30-8.45ZM36.10-13.90L36.10-13.90L36.10-13.90Q39.65-13.90 41.70-16.10L41.70-16.10L41.70-16.10Q43.75-18.20 43.75-21.55L43.75-21.55L43.75-21.55Q43.75-22.70 43.33-23.33L43.33-23.33L43.33-23.33Q42.90-23.95 42.05-23.95L42.05-23.95L42.05-23.95Q41.20-23.95 40.48-23.63L40.48-23.63L40.48-23.63Q39.75-23.30 39-22.20L39-22.20L39-22.20Q37.15-19.70 36.10-13.90ZM88.65 1L88.65 1L88.65 1Q82.60 1 82.60-3.70L82.60-3.70L82.60-3.70Q82.60-5.75 83.48-9.73L83.48-9.73L83.48-9.73Q84.35-13.70 84.65-15.30L84.65-15.30L84.65-15.30Q85.35-18.95 85.35-20.10L85.35-20.10L85.35-20.10Q85.35-22.65 83.45-22.65L83.45-22.65L83.45-22.65Q82.20-22.65 81-20.93L81-20.93L81-20.93Q79.80-19.20 79.25-15.75L79.25-15.75L76.15 0L66.40 1L69.10-12.60L69.10-12.60Q69.55-14.85 69.95-17.40L69.95-17.40L69.95-17.40Q70.35-19.95 70.35-20.35L70.35-20.35L70.35-20.35Q70.35-22.65 68.65-22.65L68.65-22.65L68.65-22.65Q67.50-22.65 66.25-20.95L66.25-20.95L66.25-20.95Q65-19.25 64.30-15.75L64.30-15.75L61.25 0L51.40 1L56.65-25.50L64.80-26.50L63.95-21.45L63.95-21.45Q65.25-24.15 67.65-25.33L67.65-25.33L67.65-25.33Q70.05-26.50 73.80-26.50L73.80-26.50L73.80-26.50Q75.95-26.50 77.35-25.45L77.35-25.45L77.35-25.45Q78.75-24.40 79.20-22.70L79.20-22.70L79.20-22.70Q80.05-24.45 82.23-25.48L82.23-25.48L82.23-25.48Q84.40-26.50 87.08-26.50L87.08-26.50L87.08-26.50Q89.75-26.50 91.08-25.93L91.08-25.93L91.08-25.93Q92.40-25.35 93.20-24.40L93.20-24.40L93.20-24.40Q94.55-22.65 94.55-19.45L94.55-19.45L94.55-19.45Q94.55-16.30 93.20-9.75L93.20-9.75L93.20-9.75Q92.50-6.55 92.50-5.38L92.50-5.38L92.50-5.38Q92.50-4.20 93.18-3.50L93.18-3.50L93.18-3.50Q93.85-2.80 94.85-2.70L94.85-2.70L94.85-2.70Q94.35-1 92.63 0L92.63 0L92.63 0Q90.90 1 88.65 1ZM109.60 1L109.60 1L109.60 1Q98.60 1 98.60-9.35L98.60-9.35L98.60-9.35Q98.60-16.70 102.65-21.45L102.65-21.45L102.65-21.45Q106.95-26.50 114.40-26.50L114.40-26.50L114.40-26.50Q119.80-26.50 122.55-24L122.55-24L122.55-24Q125.30-21.50 125.30-16.25L125.30-16.25L125.30-16.25Q125.30-8.25 121.00-3.60L121.00-3.60L121.00-3.60Q116.80 1 109.60 1ZM110.90-20.75L110.90-20.75L110.90-20.75Q110.30-19.40 109.83-17.38L109.83-17.38L109.83-17.38Q109.35-15.35 108.75-12.15L108.75-12.15L108.75-12.15Q108.15-8.95 108.15-5L108.15-5L108.15-5Q108.15-3.70 108.58-2.85L108.58-2.85L108.58-2.85Q109.00-2 110.15-2L110.15-2L110.15-2Q111.30-2 112.03-2.55L112.03-2.55L112.03-2.55Q112.75-3.10 113.30-4.40L113.30-4.40L113.30-4.40Q114.30-6.70 115.10-10.98L115.10-10.98L115.10-10.98Q115.90-15.25 115.98-17.10L115.98-17.10L115.98-17.10Q116.05-18.95 116.05-20.33L116.05-20.33L116.05-20.33Q116.05-21.70 115.65-22.60L115.65-22.60L115.65-22.60Q115.25-23.50 114.13-23.50L114.13-23.50L114.13-23.50Q113.00-23.50 112.25-22.80L112.25-22.80L112.25-22.80Q111.50-22.10 110.90-20.75ZM149.40 1L149.40 1L149.40 1Q143.35 1 143.35-3.70L143.35-3.70L143.35-3.70Q143.40-5 143.80-7.20L143.80-7.20L144.70-11.80L144.70-11.80Q146.05-18.30 146.05-19.75L146.05-19.75L146.05-19.75Q146.05-22.65 144.35-22.65L144.35-22.65L144.35-22.65Q141.50-22.65 140-15.20L140-15.20L137.05 0L127 1L132.20-25.55L140.40-26.50L139.60-21.60L139.60-21.60Q141.95-26.50 149.15-26.50L149.15-26.50L149.15-26.50Q152.65-26.50 154.13-25.03L154.13-25.03L154.13-25.03Q155.60-23.55 155.60-20.25L155.60-20.25L155.60-20.25Q155.60-17.15 154-9.90L154-9.90L154-9.90Q153.25-6.65 153.25-5.43L153.25-5.43L153.25-5.43Q153.25-4.20 153.93-3.50L153.93-3.50L153.93-3.50Q154.60-2.80 155.60-2.70L155.60-2.70L155.60-2.70Q155.10-1 153.38 0L153.38 0L153.38 0Q151.65 1 149.40 1ZM161.78-1.50L161.78-1.50L161.78-1.50Q160.60-2.80 160.07-4.85L160.07-4.85L160.07-4.85Q159.55-6.90 159.55-10.25L159.55-10.25L159.55-10.25Q159.55-13.60 160.70-16.65L160.70-16.65L160.70-16.65Q161.85-19.70 163.95-21.90L163.95-21.90L163.95-21.90Q168.25-26.50 175.35-26.50L175.35-26.50L175.35-26.50Q177.90-26.50 179.75-25.65L179.75-25.65L188.30-26.50L184.60-7L184.60-7Q184.45-6.40 184.45-5.30L184.45-5.30L184.45-5.30Q184.45-4.20 185.13-3.50L185.13-3.50L185.13-3.50Q185.80-2.80 186.80-2.70L186.80-2.70L186.80-2.70Q186.30-1 184.47 0L184.47 0L184.47 0Q182.65 1 180.60 1L180.60 1L180.60 1Q178.55 1 177.18 0.23L177.18 0.23L177.18 0.23Q175.80-0.55 175.40-1.85L175.40-1.85L175.40-1.85Q174.60-0.60 172.90 0.20L172.90 0.20L172.90 0.20Q171.20 1 168.93 1L168.93 1L168.93 1Q166.65 1 164.80 0.40L164.80 0.40L164.80 0.40Q162.95-0.20 161.78-1.50ZM172.32-21.80L172.32-21.80L172.32-21.80Q171.75-20.90 171.25-19.38L171.25-19.38L171.25-19.38Q170.75-17.85 169.93-13.78L169.93-13.78L169.93-13.78Q169.10-9.70 169.10-6.80L169.10-6.80L169.10-6.80Q169.10-3.90 169.55-3.05L169.55-3.05L169.55-3.05Q170-2.20 170.80-2.20L170.80-2.20L170.80-2.20Q172.40-2.20 173.57-3.73L173.57-3.73L173.57-3.73Q174.75-5.25 175.20-7.95L175.20-7.95L177.85-22.60L177.85-22.60Q176.80-23.50 175.57-23.50L175.57-23.50L175.57-23.50Q174.35-23.50 173.63-23.10L173.63-23.10L173.63-23.10Q172.90-22.70 172.32-21.80ZM206.55-26.50L206.55-26.50L206.55-26.50Q208.35-26.50 209.75-26.10L209.75-26.10L209.75-26.10Q209.80-26.30 209.90-26.85L209.90-26.85L210.15-28.40L210.15-28.40Q210.35-29.40 210.65-31.05L210.65-31.05L211.45-35L221.40-36L215.85-7L215.85-7Q215.80-6.70 215.80-6.20L215.80-6.20L215.80-5.40L215.80-5.40Q215.80-4.30 216.35-3.48L216.35-3.48L216.35-3.48Q216.90-2.65 217.80-2.65L217.80-2.65L217.80-2.65Q216.80-0.30 213.75 0.70L213.75 0.70L213.75 0.70Q212.70 1 211.23 1L211.23 1L211.23 1Q209.75 1 208.40 0.23L208.40 0.23L208.40 0.23Q207.05-0.55 206.65-1.85L206.65-1.85L206.65-1.85Q205.85-0.55 204.25 0.23L204.25 0.23L204.25 0.23Q202.65 1 200.33 1L200.33 1L200.33 1Q198.00 1 196.08 0.40L196.08 0.40L196.08 0.40Q194.15-0.20 192.95-1.50L192.95-1.50L192.95-1.50Q190.75-4.05 190.75-9.85L190.75-9.85L190.75-9.85Q190.75-17.35 195.15-21.90L195.15-21.90L195.15-21.90Q199.55-26.50 206.55-26.50ZM206.20-23.50L206.20-23.50L206.20-23.50Q204.35-23.50 203.35-21.50L203.35-21.50L203.35-21.50Q202.35-19.50 201.33-14.55L201.33-14.55L201.33-14.55Q200.30-9.60 200.30-5.15L200.30-5.15L200.30-5.15Q200.30-2.10 202.10-2.10L202.10-2.10L202.10-2.10Q203.70-2.10 204.83-3.70L204.83-3.70L204.83-3.70Q205.95-5.30 206.40-7.95L206.40-7.95L209.10-22.60L209.10-22.60Q208.05-23.50 206.20-23.50ZM242.30-8.45L242.30-8.45L242.30-8.45Q243.55-7.60 243.55-5.73L243.55-5.73L243.55-5.73Q243.55-3.85 242.60-2.65L242.60-2.65L242.60-2.65Q241.65-1.45 240.10-0.65L240.10-0.65L240.10-0.65Q236.90 1 233.45 1L233.45 1L233.45 1Q230.00 1 227.98 0.25L227.98 0.25L227.98 0.25Q225.95-0.50 224.60-1.90L224.60-1.90L224.60-1.90Q221.95-4.55 221.95-9.40L221.95-9.40L221.95-9.40Q221.95-16.95 226.05-21.55L226.05-21.55L226.05-21.55Q230.45-26.50 238.10-26.50L238.10-26.50L238.10-26.50Q242.85-26.50 245.20-24.50L245.20-24.50L245.20-24.50Q246.95-23 246.95-20.55L246.95-20.55L246.95-20.55Q246.95-11.75 231.75-11.75L231.75-11.75L231.75-11.75Q231.55-10.45 231.55-9.35L231.55-9.35L231.55-9.35Q231.55-7.05 232.58-6.18L232.58-6.18L232.58-6.18Q233.60-5.30 235.50-5.30L235.50-5.30L235.50-5.30Q237.40-5.30 239.43-6.18L239.43-6.18L239.43-6.18Q241.45-7.05 242.30-8.45ZM232.10-13.90L232.10-13.90L232.10-13.90Q235.65-13.90 237.70-16.10L237.70-16.10L237.70-16.10Q239.75-18.20 239.75-21.55L239.75-21.55L239.75-21.55Q239.75-22.70 239.33-23.33L239.33-23.33L239.33-23.33Q238.90-23.95 238.05-23.95L238.05-23.95L238.05-23.95Q237.20-23.95 236.48-23.63L236.48-23.63L236.48-23.63Q235.75-23.30 235.00-22.20L235.00-22.20L235.00-22.20Q233.15-19.70 232.10-13.90Z" fill="#444"></path></g></g><style>text {
  font-size: 64px;
  font-family: Arial Black;
  dominant-baseline: central;
  text-anchor: middle;
}</style></svg>